<svg xmlns="http://www.w3.org/2000/svg" viewBox="0 0 1914 2391" width="100%" height="100%">
  <path d="M 1604 1 L 1600 3 L 1598 5 L 1598 11 L 1599 15 L 1601 22 L 1605 34 L 1617 67 L 1620 75 L 1623 83 L 1637 120 L 1650 154 L 1708 303 L 1721 337 L 1729 358 L 1737 379 L 1758 435 L 1762 446 L 1766 457 L 1772 474 L 1779 495 L 1783 508 L 1785 515 L 1787 522 L 1790 533 L 1797 561 L 1803 586 L 1808 607 L 1811 620 L 1813 629 L 1815 638 L 1819 658 L 1822 676 L 1823 684 L 1824 693 L 1825 705 L 1825 760 L 1824 781 L 1822 813 L 1821 829 L 1819 856 L 1818 868 L 1817 878 L 1816 888 L 1815 895 L 1814 902 L 1813 906 L 1812 909 L 1811 911 L 1803 919 L 1800 921 L 1797 923 L 1791 926 L 1777 933 L 1755 943 L 1748 943 L 1726 942 L 1637 937 L 1569 934 L 1545 933 L 1519 932 L 1492 931 L 1464 930 L 1429 929 L 1367 928 L 1348 928 L 1309 929 L 1291 930 L 1275 931 L 1262 932 L 1250 933 L 1238 934 L 1218 936 L 1208 937 L 1191 939 L 1170 942 L 1164 943 L 1133 950 L 1124 949 L 1125 946 L 1127 941 L 1129 937 L 1132 931 L 1142 913 L 1145 908 L 1148 903 L 1153 895 L 1160 884 L 1162 881 L 1164 878 L 1171 868 L 1182 853 L 1186 848 L 1194 838 L 1200 831 L 1206 824 L 1219 811 L 1230 799 L 1236 792 L 1241 786 L 1245 781 L 1248 777 L 1251 773 L 1259 761 L 1266 747 L 1267 744 L 1268 739 L 1268 737 L 1267 730 L 1266 723 L 1262 699 L 1258 676 L 1255 659 L 1250 631 L 1242 587 L 1229 516 L 1162 150 L 1157 123 L 1154 107 L 1150 86 L 1147 71 L 1145 62 L 1144 58 L 1143 54 L 1142 51 L 1140 47 L 1133 47 L 1129 49 L 1128 51 L 1128 62 L 1129 72 L 1131 91 L 1132 100 L 1135 126 L 1144 204 L 1149 246 L 1159 330 L 1163 363 L 1178 486 L 1189 573 L 1191 588 L 1193 603 L 1200 652 L 1203 671 L 1204 677 L 1207 693 L 1211 706 L 1211 715 L 1210 719 L 1208 724 L 1202 736 L 1196 745 L 1187 757 L 1183 762 L 1178 768 L 1172 775 L 1166 782 L 1157 792 L 1145 805 L 1127 824 L 1098 853 L 1094 856 L 1092 857 L 1090 858 L 1087 859 L 1083 859 L 1079 858 L 1071 854 L 1066 851 L 1058 845 L 1053 842 L 1048 839 L 1041 835 L 1039 834 L 1037 833 L 1033 833 L 1031 834 L 1026 839 L 1022 844 L 1015 855 L 1012 858 L 1012 859 L 1010 861 L 923 861 L 905 860 L 901 859 L 899 858 L 897 857 L 892 852 L 892 851 L 886 845 L 880 840 L 876 837 L 870 834 L 866 833 L 863 833 L 860 834 L 858 835 L 856 836 L 851 841 L 849 844 L 847 847 L 846 850 L 844 853 L 838 859 L 836 860 L 833 861 L 829 861 L 826 860 L 823 859 L 821 858 L 799 836 L 784 820 L 773 808 L 763 797 L 754 787 L 746 778 L 738 769 L 731 761 L 713 740 L 708 734 L 705 730 L 705 724 L 707 704 L 711 665 L 713 646 L 716 618 L 719 590 L 724 545 L 733 464 L 744 366 L 754 277 L 764 197 L 779 62 L 780 52 L 780 50 L 778 48 L 774 48 L 772 48 L 770 50 L 769 52 L 768 57 L 766 67 L 762 88 L 759 104 L 739 212 L 728 272 L 687 501 L 647 718 L 646 719 L 646 722 L 647 723 L 648 732 L 650 737 L 652 751 L 655 763 L 656 766 L 657 769 L 658 771 L 659 773 L 661 776 L 663 779 L 666 783 L 671 789 L 688 807 L 701 822 L 706 828 L 718 843 L 721 847 L 724 851 L 729 858 L 735 867 L 740 875 L 743 880 L 746 885 L 750 892 L 754 899 L 761 912 L 763 916 L 766 922 L 770 931 L 772 936 L 773 939 L 772 945 L 766 945 L 765 944 L 750 943 L 737 940 L 724 938 L 716 937 L 703 936 L 679 935 L 610 934 L 137 934 L 131 929 L 121 920 L 111 911 L 100 901 L 92 893 L 92 725 L 93 707 L 94 696 L 95 687 L 96 680 L 97 673 L 99 660 L 105 624 L 108 607 L 112 586 L 113 581 L 116 567 L 119 555 L 124 535 L 127 524 L 131 511 L 137 492 L 138 489 L 146 466 L 151 452 L 155 441 L 161 425 L 170 401 L 178 380 L 191 346 L 223 265 L 245 207 L 248 199 L 256 177 L 263 158 L 271 136 L 283 103 L 297 64 L 304 44 L 312 20 L 313 13 L 314 12 L 314 10 L 313 8 L 311 7 L 307 7 L 302 12 L 300 15 L 296 22 L 291 32 L 274 66 L 265 85 L 257 102 L 238 143 L 232 156 L 215 193 L 182 265 L 134 370 L 113 416 L 103 438 L 102 441 L 101 444 L 99 453 L 97 462 L 92 485 L 81 536 L 58 642 L 50 679 L 47 693 L 46 698 L 45 723 L 44 759 L 41 902 L 40 939 L 39 945 L 37 949 L 33 959 L 3 1027 L 1 1032 L 2 1034 L 13 1045 L 16 1047 L 19 1049 L 21 1050 L 30 1050 L 34 1049 L 38 1048 L 45 1046 L 72 1037 L 83 1034 L 99 1030 L 112 1027 L 121 1025 L 130 1023 L 160 1017 L 171 1015 L 182 1013 L 194 1011 L 212 1008 L 240 1004 L 248 1003 L 257 1002 L 268 1001 L 287 1000 L 421 1000 L 525 999 L 621 997 L 704 997 L 706 998 L 708 999 L 714 1003 L 723 1009 L 727 1012 L 731 1016 L 732 1019 L 730 1021 L 728 1022 L 723 1023 L 717 1024 L 708 1025 L 699 1026 L 677 1027 L 668 1028 L 661 1029 L 646 1032 L 642 1033 L 631 1036 L 624 1038 L 611 1042 L 592 1048 L 531 1068 L 459 1092 L 456 1093 L 453 1095 L 445 1100 L 431 1109 L 346 1163 L 304 1190 L 281 1205 L 266 1215 L 239 1233 L 231 1239 L 207 1257 L 198 1264 L 174 1283 L 163 1292 L 152 1301 L 128 1321 L 115 1332 L 108 1338 L 100 1345 L 92 1352 L 82 1361 L 71 1372 L 68 1376 L 67 1378 L 66 1380 L 65 1383 L 65 1391 L 66 1394 L 67 1397 L 68 1399 L 69 1401 L 72 1406 L 78 1415 L 90 1432 L 92 1435 L 93 1439 L 94 1445 L 96 1457 L 103 1499 L 114 1566 L 136 1698 L 219 2202 L 235 2297 L 239 2320 L 240 2325 L 241 2331 L 242 2334 L 243 2336 L 245 2338 L 247 2339 L 257 2338 L 257 2323 L 256 2313 L 254 2295 L 251 2268 L 248 2242 L 245 2216 L 234 2122 L 228 2071 L 221 2012 L 214 1953 L 209 1911 L 200 1836 L 187 1728 L 172 1612 L 169 1587 L 166 1562 L 164 1545 L 162 1528 L 158 1492 L 157 1482 L 156 1472 L 155 1460 L 155 1441 L 156 1437 L 157 1434 L 163 1422 L 166 1417 L 168 1414 L 171 1410 L 174 1406 L 179 1400 L 186 1392 L 200 1377 L 231 1346 L 248 1330 L 258 1321 L 267 1313 L 274 1307 L 280 1302 L 285 1298 L 290 1294 L 299 1287 L 318 1273 L 325 1268 L 332 1263 L 342 1256 L 372 1236 L 383 1229 L 391 1224 L 404 1216 L 409 1213 L 426 1203 L 442 1194 L 453 1188 L 467 1181 L 493 1168 L 504 1163 L 527 1154 L 538 1149 L 569 1133 L 576 1130 L 583 1127 L 588 1125 L 596 1122 L 610 1117 L 622 1113 L 643 1106 L 656 1102 L 666 1099 L 676 1096 L 683 1094 L 690 1092 L 701 1089 L 712 1086 L 724 1083 L 733 1081 L 738 1080 L 743 1079 L 754 1079 L 756 1082 L 755 1084 L 745 1094 L 729 1106 L 716 1115 L 701 1125 L 677 1140 L 664 1149 L 660 1152 L 656 1155 L 646 1165 L 642 1173 L 640 1178 L 631 1204 L 610 1258 L 570 1358 L 542 1430 L 537 1443 L 532 1456 L 519 1490 L 513 1506 L 504 1530 L 500 1541 L 496 1553 L 496 1555 L 497 1556 L 498 1563 L 501 1575 L 504 1586 L 507 1597 L 515 1626 L 523 1655 L 538 1709 L 555 1770 L 576 1845 L 599 1927 L 639 2069 L 654 2122 L 669 2175 L 687 2238 L 721 2357 L 726 2374 L 729 2381 L 729 2384 L 732 2388 L 734 2387 L 743 2377 L 742 2373 L 740 2364 L 735 2347 L 726 2310 L 692 2170 L 653 2009 L 638 1947 L 616 1856 L 609 1827 L 597 1777 L 579 1702 L 559 1618 L 553 1592 L 552 1587 L 551 1583 L 554 1574 L 564 1550 L 582 1508 L 603 1460 L 614 1435 L 629 1401 L 660 1333 L 690 1265 L 700 1240 L 708 1224 L 711 1217 L 711 1215 L 712 1213 L 713 1212 L 714 1212 L 719 1208 L 720 1208 L 749 1188 L 757 1183 L 762 1180 L 767 1177 L 774 1173 L 787 1166 L 791 1164 L 795 1163 L 797 1161 L 806 1157 L 811 1155 L 815 1154 L 823 1155 L 824 1157 L 824 1162 L 821 1174 L 819 1181 L 813 1200 L 804 1225 L 797 1247 L 797 1252 L 799 1257 L 802 1265 L 805 1273 L 815 1299 L 828 1333 L 856 1406 L 876 1458 L 888 1489 L 909 1543 L 927 1588 L 929 1592 L 930 1595 L 932 1597 L 934 1598 L 939 1599 L 948 1600 L 969 1601 L 974 1601 L 975 1599 L 977 1595 L 983 1583 L 986 1576 L 991 1564 L 1000 1542 L 1012 1512 L 1034 1457 L 1053 1409 L 1062 1386 L 1071 1363 L 1099 1291 L 1114 1252 L 1115 1249 L 1115 1246 L 1114 1242 L 1111 1233 L 1102 1207 L 1094 1181 L 1092 1174 L 1090 1167 L 1089 1163 L 1088 1159 L 1087 1153 L 1089 1151 L 1092 1152 L 1102 1157 L 1109 1161 L 1114 1164 L 1122 1169 L 1130 1174 L 1142 1182 L 1163 1196 L 1170 1201 L 1177 1206 L 1181 1209 L 1191 1217 L 1199 1225 L 1201 1228 L 1204 1233 L 1211 1247 L 1217 1260 L 1222 1271 L 1226 1280 L 1230 1289 L 1237 1305 L 1244 1321 L 1260 1358 L 1300 1451 L 1354 1577 L 1356 1582 L 1356 1587 L 1353 1600 L 1349 1617 L 1345 1634 L 1324 1723 L 1302 1812 L 1278 1914 L 1230 2118 L 1210 2204 L 1196 2265 L 1185 2314 L 1182 2328 L 1179 2342 L 1175 2361 L 1173 2372 L 1172 2378 L 1173 2389 L 1177 2389 L 1179 2388 L 1183 2384 L 1184 2382 L 1185 2380 L 1187 2374 L 1191 2362 L 1201 2329 L 1208 2305 L 1215 2281 L 1225 2246 L 1245 2176 L 1264 2109 L 1281 2049 L 1298 1989 L 1313 1936 L 1326 1890 L 1361 1766 L 1370 1734 L 1405 1609 L 1417 1565 L 1417 1559 L 1414 1548 L 1410 1537 L 1398 1505 L 1377 1450 L 1367 1424 L 1352 1385 L 1267 1165 L 1266 1163 L 1264 1161 L 1260 1159 L 1257 1156 L 1245 1148 L 1223 1134 L 1207 1123 L 1197 1116 L 1190 1111 L 1183 1106 L 1171 1097 L 1166 1093 L 1157 1084 L 1154 1079 L 1160 1078 L 1161 1079 L 1168 1079 L 1174 1080 L 1179 1081 L 1184 1082 L 1193 1084 L 1221 1091 L 1232 1094 L 1243 1097 L 1271 1105 L 1284 1109 L 1303 1115 L 1306 1116 L 1309 1117 L 1320 1121 L 1327 1124 L 1340 1130 L 1356 1138 L 1410 1165 L 1437 1179 L 1454 1188 L 1469 1196 L 1482 1203 L 1502 1214 L 1509 1218 L 1524 1227 L 1537 1235 L 1548 1242 L 1562 1251 L 1580 1263 L 1593 1272 L 1600 1277 L 1607 1282 L 1615 1288 L 1627 1297 L 1647 1313 L 1654 1319 L 1661 1325 L 1670 1333 L 1683 1345 L 1713 1375 L 1725 1388 L 1732 1396 L 1737 1402 L 1740 1406 L 1743 1410 L 1749 1419 L 1753 1427 L 1756 1436 L 1757 1445 L 1756 1458 L 1755 1468 L 1754 1478 L 1752 1497 L 1749 1524 L 1744 1569 L 1732 1674 L 1720 1778 L 1709 1873 L 1673 2175 L 1668 2219 L 1661 2282 L 1659 2301 L 1658 2311 L 1657 2322 L 1658 2343 L 1662 2342 L 1666 2338 L 1667 2335 L 1668 2331 L 1670 2321 L 1674 2301 L 1678 2280 L 1683 2253 L 1691 2209 L 1696 2181 L 1701 2153 L 1704 2136 L 1707 2119 L 1714 2079 L 1718 2056 L 1723 2027 L 1728 1998 L 1735 1957 L 1743 1909 L 1761 1801 L 1786 1642 L 1803 1539 L 1804 1533 L 1807 1516 L 1811 1493 L 1813 1482 L 1815 1472 L 1818 1457 L 1822 1441 L 1825 1432 L 1833 1413 L 1839 1395 L 1841 1388 L 1842 1384 L 1842 1374 L 1841 1372 L 1839 1369 L 1820 1350 L 1813 1344 L 1795 1329 L 1779 1316 L 1774 1312 L 1769 1308 L 1740 1285 L 1726 1274 L 1712 1263 L 1689 1245 L 1635 1203 L 1614 1187 L 1610 1184 L 1602 1179 L 1598 1175 L 1591 1170 L 1584 1165 L 1574 1158 L 1571 1156 L 1568 1154 L 1557 1147 L 1552 1144 L 1543 1139 L 1535 1135 L 1521 1128 L 1499 1118 L 1483 1111 L 1476 1108 L 1457 1100 L 1445 1095 L 1425 1087 L 1385 1071 L 1372 1066 L 1340 1054 L 1329 1050 L 1318 1046 L 1291 1037 L 1275 1033 L 1270 1032 L 1264 1031 L 1258 1030 L 1250 1029 L 1242 1028 L 1225 1027 L 1217 1026 L 1209 1025 L 1202 1024 L 1195 1023 L 1185 1021 L 1183 1020 L 1183 1016 L 1187 1013 L 1191 1011 L 1199 1007 L 1204 1005 L 1208 1004 L 1213 1003 L 1225 1002 L 1270 1002 L 1276 1001 L 1278 999 L 1289 998 L 1449 998 L 1551 999 L 1625 1000 L 1640 1001 L 1651 1002 L 1661 1003 L 1670 1004 L 1678 1005 L 1693 1007 L 1700 1008 L 1707 1009 L 1720 1011 L 1726 1012 L 1732 1013 L 1749 1016 L 1760 1018 L 1795 1025 L 1804 1027 L 1817 1030 L 1841 1036 L 1852 1039 L 1859 1041 L 1887 1050 L 1891 1051 L 1912 1029 L 1911 1027 L 1908 1022 L 1908 1020 L 1902 1008 L 1894 992 L 1874 949 L 1873 946 L 1872 925 L 1871 894 L 1868 773 L 1867 742 L 1866 715 L 1865 708 L 1861 683 L 1851 621 L 1833 510 L 1832 503 L 1831 500 L 1828 493 L 1827 490 L 1820 473 L 1819 470 L 1789 395 L 1754 308 L 1741 276 L 1727 242 L 1719 223 L 1707 195 L 1700 179 L 1696 170 L 1691 159 L 1686 148 L 1678 131 L 1667 108 L 1646 65 L 1634 41 L 1624 22 L 1620 15 L 1618 12 L 1616 9 L 1613 6 L 1613 5 L 1611 3 L 1608 1 Z" fill="#D92534" />
</svg>